<?xml version="1.0" standalone="no"?>
<!DOCTYPE svg PUBLIC "-//W3C//DTD SVG 20010904//EN"
 "http://www.w3.org/TR/2001/REC-SVG-20010904/DTD/svg10.dtd">
<svg version="1.0" xmlns="http://www.w3.org/2000/svg"
 width="128.000000pt" height="128.000000pt" viewBox="0 0 128.000000 128.000000"
 preserveAspectRatio="xMidYMid meet">
<metadata>
Created by potrace 1.11, written by Peter Selinger 2001-2013
</metadata>
<g transform="translate(0.000000,128.000000) scale(0.100000,-0.100000)"
fill="#000000" stroke="none">
<path d="M502 1265 c-237 -52 -438 -254 -487 -490 -95 -454 306 -855 760 -760
182 38 352 170 434 335 94 192 94 388 0 580 -126 255 -424 396 -707 335z m-49
-340 c38 -8 95 -28 128 -44 l59 -29 57 28 c66 32 164 55 276 65 l77 7 0 -305
0 -305 -67 -6 c-114 -10 -225 -36 -285 -66 l-57 -29 -60 30 c-62 31 -162 54
-283 65 l-68 6 0 297 c0 164 3 301 7 305 10 9 126 -1 216 -19z"/>
<path d="M340 636 l0 -206 33 0 c43 0 151 -26 188 -45 l29 -16 -2 208 -3 208
-67 22 c-37 13 -92 26 -122 29 l-56 7 0 -207z"/>
<path d="M803 820 c-123 -32 -113 -10 -113 -244 l0 -204 65 24 c36 13 93 27
127 31 l63 8 3 203 2 202 -37 -1 c-21 0 -70 -9 -110 -19z"/>
</g>
</svg>
